<svg width="516" height="336" viewBox="0 0 516 336" fill="none" xmlns="http://www.w3.org/2000/svg">
<path d="M0 336V86.3333H71.3333V15H249.667V157.667H321V336H178.333V264.667H142.667V336H0ZM35.6667 300.333H71.3333V264.667H35.6667V300.333ZM35.6667 229H71.3333V193.333H35.6667V229ZM35.6667 157.667H71.3333V122H35.6667V157.667ZM107 229H142.667V193.333H107V229ZM107 157.667H142.667V122H107V157.667ZM107 86.3333H142.667V50.6667H107V86.3333ZM178.333 229H214V193.333H178.333V229ZM178.333 157.667H214V122H178.333V157.667ZM178.333 86.3333H214V50.6667H178.333V86.3333ZM249.667 300.333H285.333V264.667H249.667V300.333ZM249.667 229H285.333V193.333H249.667V229Z" fill="black"/>
<path d="M382 328.269V264.856L397.575 220.356C398.502 218.317 399.846 216.602 401.608 215.211C403.369 213.82 405.548 213.125 408.144 213.125H489.356C491.952 213.125 494.177 213.82 496.031 215.211C497.885 216.602 499.183 218.317 499.925 220.356L515.5 264.856V328.269C515.5 330.308 514.805 332.023 513.414 333.414C512.023 334.805 510.308 335.5 508.269 335.5H500.481C498.442 335.5 496.727 334.805 495.336 333.414C493.945 332.023 493.25 330.308 493.25 328.269V318.812H404.25V328.269C404.25 330.308 403.555 332.023 402.164 333.414C400.773 334.805 399.058 335.5 397.019 335.5H389.231C387.192 335.5 385.477 334.805 384.086 333.414C382.695 332.023 382 330.308 382 328.269ZM404.25 252.062H493.25L485.462 229.812H412.037L404.25 252.062ZM415.375 296.562C418.527 296.562 421.169 295.496 423.302 293.364C425.434 291.232 426.5 288.59 426.5 285.437C426.5 282.285 425.434 279.643 423.302 277.511C421.169 275.379 418.527 274.312 415.375 274.312C412.223 274.312 409.581 275.379 407.448 277.511C405.316 279.643 404.25 282.285 404.25 285.437C404.25 288.59 405.316 291.232 407.448 293.364C409.581 295.496 412.223 296.562 415.375 296.562ZM482.125 296.562C485.277 296.562 487.919 295.496 490.052 293.364C492.184 291.232 493.25 288.59 493.25 285.437C493.25 282.285 492.184 279.643 490.052 277.511C487.919 275.379 485.277 274.312 482.125 274.312C478.973 274.312 476.331 275.379 474.198 277.511C472.066 279.643 471 282.285 471 285.437C471 288.59 472.066 291.232 474.198 293.364C476.331 295.496 478.973 296.562 482.125 296.562ZM337.5 246.5V224.25H359.75V246.5H337.5ZM393.125 179.75V157.5H415.375V179.75H393.125ZM337.5 291V268.75H359.75V291H337.5ZM337.5 335.5V313.25H359.75V335.5H337.5ZM293 335.5V179.75H348.625V113H459.875V190.875H437.625V135.25H370.875V202H315.25V335.5H293ZM398.687 302.125H498.812V268.75H398.687V302.125Z" fill="black" fill-opacity="0.81"/>
<path d="M321 56.5C324.094 56.5 326.742 55.3935 328.945 53.1806C331.148 50.9677 332.25 48.3075 332.25 45.2C332.25 42.0925 331.148 39.4323 328.945 37.2194C326.742 35.0065 324.094 33.9 321 33.9C317.906 33.9 315.258 35.0065 313.055 37.2194C310.852 39.4323 309.75 42.0925 309.75 45.2C309.75 48.3075 310.852 50.9677 313.055 53.1806C315.258 55.3935 317.906 56.5 321 56.5ZM321 98.0275C332.438 87.4808 340.922 77.8994 346.453 69.2831C351.984 60.6669 354.75 53.0158 354.75 46.33C354.75 36.0658 351.492 27.6615 344.977 21.1169C338.461 14.5723 330.469 11.3 321 11.3C311.531 11.3 303.539 14.5723 297.023 21.1169C290.508 27.6615 287.25 36.0658 287.25 46.33C287.25 53.0158 290.016 60.6669 295.547 69.2831C301.078 77.8994 309.562 87.4808 321 98.0275ZM321 113C305.906 100.099 294.633 88.1165 287.18 77.0519C279.727 65.9873 276 55.7467 276 46.33C276 32.205 280.523 20.9521 289.57 12.5712C298.617 4.19042 309.094 0 321 0C332.906 0 343.383 4.19042 352.43 12.5712C361.477 20.9521 366 32.205 366 46.33C366 55.7467 362.273 65.9873 354.82 77.0519C347.367 88.1165 336.094 100.099 321 113Z" fill="black"/>
</svg>
