<svg width="774" height="493" viewBox="0 0 774 493" fill="none" xmlns="http://www.w3.org/2000/svg">
<path d="M65 336V86.3333H136.333V15H314.667V157.667H386V336H243.333V264.667H207.667V336H65ZM100.667 300.333H136.333V264.667H100.667V300.333ZM100.667 229H136.333V193.333H100.667V229ZM100.667 157.667H136.333V122H100.667V157.667ZM172 229H207.667V193.333H172V229ZM172 157.667H207.667V122H172V157.667ZM172 86.3333H207.667V50.6667H172V86.3333ZM243.333 229H279V193.333H243.333V229ZM243.333 157.667H279V122H243.333V157.667ZM243.333 86.3333H279V50.6667H243.333V86.3333ZM314.667 300.333H350.333V264.667H314.667V300.333ZM314.667 229H350.333V193.333H314.667V229Z" fill="black"/>
<path d="M447 328.269V264.856L462.575 220.356C463.502 218.317 464.846 216.602 466.608 215.211C468.369 213.82 470.548 213.125 473.144 213.125H554.356C556.952 213.125 559.177 213.82 561.031 215.211C562.885 216.602 564.183 218.317 564.925 220.356L580.5 264.856V328.269C580.5 330.308 579.805 332.023 578.414 333.414C577.023 334.805 575.308 335.5 573.269 335.5H565.481C563.442 335.5 561.727 334.805 560.336 333.414C558.945 332.023 558.25 330.308 558.25 328.269V318.812H469.25V328.269C469.25 330.308 468.555 332.023 467.164 333.414C465.773 334.805 464.058 335.5 462.019 335.5H454.231C452.192 335.5 450.477 334.805 449.086 333.414C447.695 332.023 447 330.308 447 328.269ZM469.25 252.062H558.25L550.462 229.812H477.037L469.25 252.062ZM480.375 296.562C483.527 296.562 486.169 295.496 488.302 293.364C490.434 291.232 491.5 288.59 491.5 285.437C491.5 282.285 490.434 279.643 488.302 277.511C486.169 275.379 483.527 274.312 480.375 274.312C477.223 274.312 474.581 275.379 472.448 277.511C470.316 279.643 469.25 282.285 469.25 285.437C469.25 288.59 470.316 291.232 472.448 293.364C474.581 295.496 477.223 296.562 480.375 296.562ZM547.125 296.562C550.277 296.562 552.919 295.496 555.052 293.364C557.184 291.232 558.25 288.59 558.25 285.437C558.25 282.285 557.184 279.643 555.052 277.511C552.919 275.379 550.277 274.312 547.125 274.312C543.973 274.312 541.331 275.379 539.198 277.511C537.066 279.643 536 282.285 536 285.437C536 288.59 537.066 291.232 539.198 293.364C541.331 295.496 543.973 296.562 547.125 296.562ZM402.5 246.5V224.25H424.75V246.5H402.5ZM458.125 179.75V157.5H480.375V179.75H458.125ZM402.5 291V268.75H424.75V291H402.5ZM402.5 335.5V313.25H424.75V335.5H402.5ZM358 335.5V179.75H413.625V113H524.875V190.875H502.625V135.25H435.875V202H380.25V335.5H358ZM463.687 302.125H563.812V268.75H463.687V302.125Z" fill="black" fill-opacity="0.81"/>
<path d="M386 56.5C389.094 56.5 391.742 55.3935 393.945 53.1806C396.148 50.9677 397.25 48.3075 397.25 45.2C397.25 42.0925 396.148 39.4323 393.945 37.2194C391.742 35.0065 389.094 33.9 386 33.9C382.906 33.9 380.258 35.0065 378.055 37.2194C375.852 39.4323 374.75 42.0925 374.75 45.2C374.75 48.3075 375.852 50.9677 378.055 53.1806C380.258 55.3935 382.906 56.5 386 56.5ZM386 98.0275C397.438 87.4808 405.922 77.8994 411.453 69.2831C416.984 60.6669 419.75 53.0158 419.75 46.33C419.75 36.0658 416.492 27.6615 409.977 21.1169C403.461 14.5723 395.469 11.3 386 11.3C376.531 11.3 368.539 14.5723 362.023 21.1169C355.508 27.6615 352.25 36.0658 352.25 46.33C352.25 53.0158 355.016 60.6669 360.547 69.2831C366.078 77.8994 374.562 87.4808 386 98.0275ZM386 113C370.906 100.099 359.633 88.1165 352.18 77.0519C344.727 65.9873 341 55.7467 341 46.33C341 32.205 345.523 20.9521 354.57 12.5712C363.617 4.19042 374.094 0 386 0C397.906 0 408.383 4.19042 417.43 12.5712C426.477 20.9521 431 32.205 431 46.33C431 55.7467 427.273 65.9873 419.82 77.0519C412.367 88.1165 401.094 100.099 386 113Z" fill="black"/>
<path d="M155.102 400.5H135.193C134.83 397.924 134.087 395.636 132.966 393.636C131.845 391.606 130.405 389.879 128.648 388.455C126.89 387.03 124.86 385.939 122.557 385.182C120.284 384.424 117.814 384.045 115.148 384.045C110.33 384.045 106.133 385.242 102.557 387.636C98.9811 390 96.2083 393.455 94.2386 398C92.2689 402.515 91.2841 408 91.2841 414.455C91.2841 421.091 92.2689 426.667 94.2386 431.182C96.2386 435.697 99.0265 439.106 102.602 441.409C106.178 443.712 110.314 444.864 115.011 444.864C117.648 444.864 120.087 444.515 122.33 443.818C124.602 443.121 126.617 442.106 128.375 440.773C130.133 439.409 131.587 437.758 132.739 435.818C133.92 433.879 134.739 431.667 135.193 429.182L155.102 429.273C154.587 433.545 153.299 437.667 151.239 441.636C149.208 445.576 146.466 449.106 143.011 452.227C139.587 455.318 135.496 457.773 130.739 459.591C126.011 461.379 120.663 462.273 114.693 462.273C106.39 462.273 98.9659 460.394 92.4205 456.636C85.9053 452.879 80.7538 447.439 76.9659 440.318C73.2083 433.197 71.3295 424.576 71.3295 414.455C71.3295 404.303 73.2386 395.667 77.0568 388.545C80.875 381.424 86.0568 376 92.6023 372.273C99.1477 368.515 106.511 366.636 114.693 366.636C120.087 366.636 125.087 367.394 129.693 368.909C134.33 370.424 138.436 372.636 142.011 375.545C145.587 378.424 148.496 381.955 150.739 386.136C153.011 390.318 154.466 395.106 155.102 400.5ZM168.852 461V391.182H188.216V461H168.852ZM178.58 382.182C175.701 382.182 173.231 381.227 171.17 379.318C169.14 377.379 168.125 375.061 168.125 372.364C168.125 369.697 169.14 367.409 171.17 365.5C173.231 363.561 175.701 362.591 178.58 362.591C181.458 362.591 183.913 363.561 185.943 365.5C188.004 367.409 189.034 369.697 189.034 372.364C189.034 375.061 188.004 377.379 185.943 379.318C183.913 381.227 181.458 382.182 178.58 382.182ZM240.864 391.182V405.727H198.818V391.182H240.864ZM208.364 374.455H227.727V439.545C227.727 441.333 228 442.727 228.545 443.727C229.091 444.697 229.848 445.379 230.818 445.773C231.818 446.167 232.97 446.364 234.273 446.364C235.182 446.364 236.091 446.288 237 446.136C237.909 445.955 238.606 445.818 239.091 445.727L242.136 460.136C241.167 460.439 239.803 460.788 238.045 461.182C236.288 461.606 234.152 461.864 231.636 461.955C226.97 462.136 222.879 461.515 219.364 460.091C215.879 458.667 213.167 456.455 211.227 453.455C209.288 450.455 208.333 446.667 208.364 442.091V374.455ZM265.432 487.182C262.977 487.182 260.674 486.985 258.523 486.591C256.402 486.227 254.644 485.758 253.25 485.182L257.614 470.727C259.886 471.424 261.932 471.803 263.75 471.864C265.598 471.924 267.189 471.5 268.523 470.591C269.886 469.682 270.992 468.136 271.841 465.955L272.977 463L247.932 391.182H268.295L282.75 442.455H283.477L298.068 391.182H318.568L291.432 468.545C290.129 472.303 288.356 475.576 286.114 478.364C283.902 481.182 281.098 483.348 277.705 484.864C274.311 486.409 270.22 487.182 265.432 487.182ZM379.341 394.682C378.977 391.015 377.417 388.167 374.659 386.136C371.902 384.106 368.159 383.091 363.432 383.091C360.22 383.091 357.508 383.545 355.295 384.455C353.083 385.333 351.386 386.561 350.205 388.136C349.053 389.712 348.477 391.5 348.477 393.5C348.417 395.167 348.765 396.621 349.523 397.864C350.311 399.106 351.386 400.182 352.75 401.091C354.114 401.97 355.689 402.742 357.477 403.409C359.265 404.045 361.174 404.591 363.205 405.045L371.568 407.045C375.629 407.955 379.356 409.167 382.75 410.682C386.144 412.197 389.083 414.061 391.568 416.273C394.053 418.485 395.977 421.091 397.341 424.091C398.735 427.091 399.447 430.53 399.477 434.409C399.447 440.106 397.992 445.045 395.114 449.227C392.265 453.379 388.144 456.606 382.75 458.909C377.386 461.182 370.917 462.318 363.341 462.318C355.826 462.318 349.28 461.167 343.705 458.864C338.159 456.561 333.826 453.152 330.705 448.636C327.614 444.091 325.992 438.47 325.841 431.773H344.886C345.098 434.894 345.992 437.5 347.568 439.591C349.174 441.652 351.311 443.212 353.977 444.273C356.674 445.303 359.72 445.818 363.114 445.818C366.447 445.818 369.341 445.333 371.795 444.364C374.28 443.394 376.205 442.045 377.568 440.318C378.932 438.591 379.614 436.606 379.614 434.364C379.614 432.273 378.992 430.515 377.75 429.091C376.538 427.667 374.75 426.455 372.386 425.455C370.053 424.455 367.189 423.545 363.795 422.727L353.659 420.182C345.811 418.273 339.614 415.288 335.068 411.227C330.523 407.167 328.265 401.697 328.295 394.818C328.265 389.182 329.765 384.258 332.795 380.045C335.856 375.833 340.053 372.545 345.386 370.182C350.72 367.818 356.78 366.636 363.568 366.636C370.477 366.636 376.508 367.818 381.659 370.182C386.841 372.545 390.871 375.833 393.75 380.045C396.629 384.258 398.114 389.136 398.205 394.682H379.341ZM444.17 462.364C436.989 462.364 430.807 460.909 425.625 458C420.473 455.061 416.504 450.909 413.716 445.545C410.928 440.152 409.534 433.773 409.534 426.409C409.534 419.227 410.928 412.924 413.716 407.5C416.504 402.076 420.428 397.848 425.489 394.818C430.58 391.788 436.549 390.273 443.398 390.273C448.004 390.273 452.292 391.015 456.261 392.5C460.261 393.955 463.746 396.152 466.716 399.091C469.716 402.03 472.049 405.727 473.716 410.182C475.383 414.606 476.216 419.788 476.216 425.727V431.045H417.261V419.045H457.989C457.989 416.258 457.383 413.788 456.17 411.636C454.958 409.485 453.277 407.803 451.125 406.591C449.004 405.348 446.534 404.727 443.716 404.727C440.777 404.727 438.17 405.409 435.898 406.773C433.655 408.106 431.898 409.909 430.625 412.182C429.352 414.424 428.701 416.924 428.67 419.682V431.091C428.67 434.545 429.307 437.53 430.58 440.045C431.883 442.561 433.716 444.5 436.08 445.864C438.443 447.227 441.246 447.909 444.489 447.909C446.64 447.909 448.61 447.606 450.398 447C452.186 446.394 453.716 445.485 454.989 444.273C456.261 443.061 457.231 441.576 457.898 439.818L475.807 441C474.898 445.303 473.034 449.061 470.216 452.273C467.428 455.455 463.822 457.939 459.398 459.727C455.004 461.485 449.928 462.364 444.17 462.364ZM508.216 420.636V461H488.852V391.182H507.307V403.5H508.125C509.67 399.439 512.261 396.227 515.898 393.864C519.534 391.47 523.943 390.273 529.125 390.273C533.973 390.273 538.201 391.333 541.807 393.455C545.413 395.576 548.216 398.606 550.216 402.545C552.216 406.455 553.216 411.121 553.216 416.545V461H533.852V420C533.883 415.727 532.792 412.394 530.58 410C528.367 407.576 525.322 406.364 521.443 406.364C518.837 406.364 516.534 406.924 514.534 408.045C512.564 409.167 511.019 410.803 509.898 412.955C508.807 415.076 508.246 417.636 508.216 420.636ZM626.568 411.091L608.841 412.182C608.538 410.667 607.886 409.303 606.886 408.091C605.886 406.848 604.568 405.864 602.932 405.136C601.326 404.379 599.402 404 597.159 404C594.159 404 591.629 404.636 589.568 405.909C587.508 407.152 586.477 408.818 586.477 410.909C586.477 412.576 587.144 413.985 588.477 415.136C589.811 416.288 592.098 417.212 595.341 417.909L607.977 420.455C614.765 421.848 619.826 424.091 623.159 427.182C626.492 430.273 628.159 434.333 628.159 439.364C628.159 443.939 626.811 447.955 624.114 451.409C621.447 454.864 617.78 457.561 613.114 459.5C608.477 461.409 603.129 462.364 597.068 462.364C587.826 462.364 580.462 460.439 574.977 456.591C569.523 452.712 566.326 447.439 565.386 440.773L584.432 439.773C585.008 442.591 586.402 444.742 588.614 446.227C590.826 447.682 593.659 448.409 597.114 448.409C600.508 448.409 603.235 447.758 605.295 446.455C607.386 445.121 608.447 443.409 608.477 441.318C608.447 439.561 607.705 438.121 606.25 437C604.795 435.848 602.553 434.97 599.523 434.364L587.432 431.955C580.614 430.591 575.538 428.227 572.205 424.864C568.902 421.5 567.25 417.212 567.25 412C567.25 407.515 568.462 403.652 570.886 400.409C573.341 397.167 576.78 394.667 581.205 392.909C585.659 391.152 590.871 390.273 596.841 390.273C605.659 390.273 612.598 392.136 617.659 395.864C622.75 399.591 625.72 404.667 626.568 411.091ZM672.17 462.364C664.989 462.364 658.807 460.909 653.625 458C648.473 455.061 644.504 450.909 641.716 445.545C638.928 440.152 637.534 433.773 637.534 426.409C637.534 419.227 638.928 412.924 641.716 407.5C644.504 402.076 648.428 397.848 653.489 394.818C658.58 391.788 664.549 390.273 671.398 390.273C676.004 390.273 680.292 391.015 684.261 392.5C688.261 393.955 691.746 396.152 694.716 399.091C697.716 402.03 700.049 405.727 701.716 410.182C703.383 414.606 704.216 419.788 704.216 425.727V431.045H645.261V419.045H685.989C685.989 416.258 685.383 413.788 684.17 411.636C682.958 409.485 681.277 407.803 679.125 406.591C677.004 405.348 674.534 404.727 671.716 404.727C668.777 404.727 666.17 405.409 663.898 406.773C661.655 408.106 659.898 409.909 658.625 412.182C657.352 414.424 656.701 416.924 656.67 419.682V431.091C656.67 434.545 657.307 437.53 658.58 440.045C659.883 442.561 661.716 444.5 664.08 445.864C666.443 447.227 669.246 447.909 672.489 447.909C674.64 447.909 676.61 447.606 678.398 447C680.186 446.394 681.716 445.485 682.989 444.273C684.261 443.061 685.231 441.576 685.898 439.818L703.807 441C702.898 445.303 701.034 449.061 698.216 452.273C695.428 455.455 691.822 457.939 687.398 459.727C683.004 461.485 677.928 462.364 672.17 462.364Z" fill="black"/>
</svg>
